<?xml version="1.0" standalone="no"?>
<!DOCTYPE svg PUBLIC "-//W3C//DTD SVG 20010904//EN"
 "http://www.w3.org/TR/2001/REC-SVG-20010904/DTD/svg10.dtd">
<svg version="1.0" xmlns="http://www.w3.org/2000/svg"
 width="500.000000pt" height="500.000000pt" viewBox="0 0 500.000000 500.000000"
 preserveAspectRatio="xMidYMid meet">

<g transform="translate(0.000000,500.000000) scale(0.100000,-0.100000)"
fill="#000000" stroke="none">
<path d="M1560 3313 c-109 -24 -164 -41 -186 -58 -17 -13 -53 -61 -81 -107
-27 -46 -93 -155 -146 -242 -54 -88 -97 -163 -97 -168 0 -5 14 -29 30 -53 17
-24 30 -47 30 -51 0 -4 -29 -4 -64 -2 l-63 5 -37 -61 c-19 -35 -38 -76 -42
-93 -5 -28 50 -271 76 -330 24 -57 37 -39 401 560 200 329 354 592 354 606 0
13 -4 25 -10 27 -5 1 -80 -14 -165 -33z"/>
<path d="M1937 3343 c-4 -3 -7 -289 -7 -635 0 -621 0 -628 20 -628 20 0 20 7
20 635 0 522 -2 635 -13 635 -8 0 -17 -3 -20 -7z"/>
<path d="M728 2863 l-144 -238 170 -3 c159 -2 172 -1 187 17 14 17 24 19 77
14 34 -3 62 -2 62 3 0 5 -14 27 -30 48 -17 22 -30 45 -30 51 0 6 33 66 74 132
41 67 87 142 101 167 l27 46 -175 0 -175 0 -144 -237z"/>
<path d="M2157 2843 c-4 -3 -7 -48 -7 -100 l0 -93 45 0 c37 0 45 3 45 18 0 10
11 25 25 32 25 14 22 15 92 -36 14 -10 37 -14 69 -12 l49 3 -68 49 -69 48 69
47 68 46 -49 3 c-44 3 -56 -2 -117 -42 l-69 -46 0 45 0 45 -38 0 c-21 0 -42
-3 -45 -7z"/>
<path d="M2551 2754 c-33 -52 -61 -97 -61 -100 0 -2 18 -4 40 -4 27 0 43 5 46
15 5 11 23 15 74 15 51 0 69 -4 74 -15 3 -10 19 -15 46 -15 22 0 40 2 40 5 0
3 -27 48 -61 100 -59 93 -62 95 -99 95 -37 0 -39 -2 -99 -96z m129 -16 c0 -5
-13 -8 -30 -8 -34 0 -37 6 -14 39 l17 24 13 -24 c7 -13 13 -27 14 -31z"/>
<path d="M2840 2751 l0 -101 45 0 c43 0 45 1 45 30 0 28 3 30 34 30 36 0 66
-21 66 -46 0 -10 12 -14 40 -14 33 0 40 3 40 19 0 11 -7 27 -16 35 -14 15 -14
17 0 32 23 22 20 67 -5 90 -17 16 -40 20 -135 23 l-114 3 0 -101z m185 29 c0
-11 -13 -16 -47 -18 -43 -3 -48 -1 -48 18 0 19 5 21 48 18 34 -2 47 -7 47 -18z"/>
<path d="M3193 2753 l-62 -98 35 -3 c22 -2 43 3 53 12 24 22 139 22 147 1 4
-10 20 -15 50 -15 l44 0 -63 98 c-61 94 -65 97 -103 100 l-39 3 -62 -98z m127
-15 c0 -5 -14 -8 -30 -8 l-31 0 17 32 16 32 14 -25 c7 -13 13 -27 14 -31z"/>
<path d="M3470 2825 c0 -22 4 -25 40 -25 l40 0 0 -75 0 -75 40 0 40 0 0 75 0
75 40 0 c36 0 40 3 40 25 l0 25 -120 0 -120 0 0 -25z"/>
<path d="M3740 2750 l0 -100 120 0 120 0 0 25 c0 25 -1 25 -80 25 -64 0 -80 3
-80 15 0 12 14 15 66 15 57 0 65 2 62 18 -3 14 -16 18 -66 20 -46 2 -62 7 -62
17 0 12 16 15 75 15 73 0 75 1 75 25 l0 25 -115 0 -115 0 0 -100z"/>
<path d="M1340 2548 c-47 -78 -85 -145 -85 -150 0 -20 114 -152 145 -168 51
-26 377 -33 393 -9 8 13 -25 60 -172 243 -100 124 -185 226 -189 226 -4 -1
-45 -64 -92 -142z"/>
<path d="M2793 2520 c-29 -12 -43 -40 -43 -88 0 -86 98 -114 136 -40 37 71
-24 155 -93 128z m67 -30 c40 -40 14 -120 -39 -120 -53 0 -77 66 -41 113 25
32 52 35 80 7z"/>
<path d="M2451 2433 c1 -58 4 -76 8 -53 5 31 10 35 41 38 45 5 60 18 60 51 0
38 -17 51 -67 51 l-43 0 1 -87z m83 55 c16 -26 -4 -52 -43 -56 -29 -3 -31 -1
-31 31 0 18 3 37 7 41 13 12 56 2 67 -16z"/>
<path d="M2600 2435 c0 -50 4 -85 10 -85 6 0 10 16 10 35 0 30 3 35 23 35 17
0 28 -10 40 -35 9 -19 21 -35 27 -35 6 0 4 14 -6 32 -15 29 -15 34 0 59 16 27
13 57 -8 71 -6 4 -30 8 -53 8 l-43 0 0 -85z m90 60 c6 -8 9 -23 5 -35 -5 -15
-15 -20 -41 -20 -32 0 -34 2 -34 35 0 32 3 35 29 35 16 0 34 -7 41 -15z"/>
<path d="M3010 2435 l0 -85 50 0 c28 0 50 5 50 10 0 6 -20 10 -45 10 -43 0
-45 1 -45 30 0 28 2 30 40 30 22 0 40 5 40 10 0 6 -18 10 -41 10 -38 0 -40 1
-37 28 3 24 8 28 48 33 l45 6 -52 1 -53 2 0 -85z"/>
<path d="M3140 2511 c0 -15 51 -145 61 -155 5 -5 11 -8 13 -5 13 12 63 170 54
167 -7 -3 -21 -32 -32 -65 -12 -34 -24 -65 -28 -68 -3 -4 -17 25 -29 64 -13
39 -27 71 -31 71 -4 0 -8 -4 -8 -9z"/>
<path d="M3310 2435 l0 -85 50 0 c28 0 50 5 50 10 0 6 -18 10 -40 10 -38 0
-40 2 -40 30 0 28 2 30 41 30 24 0 38 4 34 10 -3 6 -22 10 -41 10 -31 0 -34 3
-34 29 0 28 3 30 43 34 40 3 40 4 -10 5 l-53 2 0 -85z"/>
<path d="M3462 2433 c2 -82 2 -84 5 -20 2 37 7 67 11 67 4 0 27 -30 51 -65 24
-36 48 -65 53 -65 4 0 8 38 8 85 0 50 -4 85 -10 85 -6 0 -10 -29 -10 -67 l0
-67 -45 65 c-25 35 -50 66 -55 67 -6 2 -9 -31 -8 -85z"/>
<path d="M3653 2513 c27 -4 27 -5 27 -84 0 -46 4 -79 10 -79 6 0 10 33 10 79
l0 80 33 4 c17 2 1 4 -38 4 -38 0 -58 -2 -42 -4z"/>
</g>
</svg>
